<svg width="20" height="21" viewBox="0 0 20 21" fill="none" xmlns="http://www.w3.org/2000/svg">
<path d="M5.03175 3.94372H15.2805C15.6313 3.94497 15.9673 4.08499 16.2151 4.33321C16.463 4.58143 16.6026 4.91767 16.6034 5.2685V15.4851C16.6009 15.8347 16.4604 16.1692 16.2124 16.4156C16.0901 16.5388 15.9447 16.6366 15.7845 16.7035C15.6243 16.7703 15.4525 16.8049 15.2789 16.8051H5.03017C4.67929 16.8039 4.34313 16.6639 4.09502 16.4157C3.8469 16.1676 3.70696 15.8313 3.70571 15.4803V5.2685C3.7071 5.09435 3.74292 4.9222 3.81111 4.76196C3.8793 4.60172 3.97852 4.45656 4.10305 4.33484C4.22539 4.21171 4.37081 4.11392 4.53098 4.04708C4.69115 3.98023 4.86293 3.94565 5.03648 3.9453L5.03175 3.94372ZM7.64597 6.57593H12.6631C12.9977 6.57593 13.3185 6.70886 13.5551 6.94547C13.7916 7.18209 13.9245 7.503 13.9245 7.83763V12.9159C13.9245 13.2506 13.7916 13.5715 13.5551 13.8081C13.3185 14.0447 12.9977 14.1776 12.6631 14.1776H7.64597C7.31143 14.1776 6.99059 14.0447 6.75404 13.8081C6.51748 13.5715 6.38459 13.2506 6.38459 12.9159V7.83447C6.38459 7.49985 6.51748 7.17893 6.75404 6.94232C6.99059 6.7057 7.31143 6.57278 7.64597 6.57278V6.57593ZM14.9636 14.7218C14.9639 14.8135 14.937 14.9033 14.8862 14.9798C14.8355 15.0562 14.7632 15.1159 14.6785 15.1513C14.5939 15.1866 14.5006 15.196 14.4106 15.1783C14.3205 15.1606 14.2378 15.1165 14.1728 15.0518C14.1078 14.987 14.0635 14.9044 14.0455 14.8144C14.0275 14.7244 14.0366 14.6311 14.0716 14.5463C14.1067 14.4614 14.1661 14.3889 14.2423 14.3379C14.3186 14.2869 14.4083 14.2597 14.5 14.2597C14.6227 14.2597 14.7404 14.3083 14.8273 14.3949C14.9142 14.4815 14.9632 14.5991 14.9636 14.7218ZM6.27106 6.02236C6.27137 6.11413 6.24445 6.20394 6.19371 6.28039C6.14296 6.35685 6.07067 6.41653 5.98599 6.45186C5.90132 6.4872 5.80806 6.49661 5.71804 6.47889C5.62801 6.46118 5.54526 6.41715 5.48028 6.35236C5.41529 6.28758 5.37098 6.20497 5.35297 6.11498C5.33495 6.02499 5.34404 5.93168 5.37908 5.84687C5.41412 5.76205 5.47353 5.68954 5.5498 5.63852C5.62606 5.5875 5.71575 5.56027 5.8075 5.56027C5.93017 5.56027 6.04784 5.6089 6.13473 5.69551C6.22162 5.78213 6.27064 5.89966 6.27106 6.02236ZM14.5 5.565C14.592 5.56501 14.6819 5.59237 14.7582 5.6436C14.8346 5.69483 14.894 5.76762 14.9289 5.85272C14.9638 5.93781 14.9726 6.03136 14.9542 6.12147C14.9358 6.21159 14.891 6.29419 14.8255 6.35877C14.7601 6.42336 14.6769 6.46702 14.5865 6.48419C14.4962 6.50136 14.4028 6.49127 14.3182 6.45521C14.2336 6.41915 14.1617 6.35874 14.1115 6.28166C14.0613 6.20458 14.0352 6.11433 14.0365 6.02236C14.0369 5.89993 14.0857 5.78264 14.1723 5.69607C14.2588 5.6095 14.3761 5.56068 14.4985 5.56027L14.5 5.565ZM5.8075 14.2597C5.89932 14.2593 5.98916 14.2863 6.06563 14.3371C6.14211 14.388 6.20177 14.4604 6.23705 14.5452C6.27233 14.6299 6.28164 14.7233 6.26381 14.8134C6.24597 14.9035 6.20179 14.9863 6.13686 15.0512C6.07194 15.1161 5.98919 15.1603 5.89913 15.1782C5.80906 15.196 5.71572 15.1867 5.63095 15.1514C5.54618 15.1161 5.4738 15.0564 5.42299 14.9799C5.37217 14.9035 5.34521 14.8136 5.34552 14.7218C5.34593 14.5993 5.39474 14.482 5.48129 14.3955C5.56784 14.3089 5.6851 14.2601 5.8075 14.2597ZM5.91787 17.8492V20.0351H5.1027V17.8508L5.91787 17.8492ZM7.80049 17.8492V20.0351H6.98532V17.8508L7.80049 17.8492ZM9.68154 17.8492V20.0351H8.86637V17.8508L9.68154 17.8492ZM11.5642 17.8492V20.0351H10.749V17.8508L11.5642 17.8492ZM13.4452 17.8492V20.0351H12.63V17.8508L13.4452 17.8492ZM15.3278 17.8492V20.0351H14.5095V17.8508L15.3278 17.8492ZM5.91787 0.660156V2.84604H5.1027V0.660156H5.91787ZM7.80049 0.660156V2.84604H6.98532V0.660156H7.80049ZM9.68154 0.660156V2.84604H8.86637V0.660156H9.68154ZM11.5642 0.660156V2.84604H10.749V0.660156H11.5642ZM13.4452 0.660156V2.84604H12.63V0.660156H13.4452ZM15.3278 0.660156V2.84604H14.5095V0.660156H15.3278ZM17.663 14.6666H19.8483V15.4851H17.663V14.6666ZM17.663 12.7835H19.8483V13.5925H17.663V12.7835ZM17.663 10.902H19.8483V11.7173H17.663V10.902ZM17.663 9.01889H19.8483V9.83426H17.663V9.01889ZM17.663 7.13738H19.8483V7.95276H17.663V7.13738ZM17.663 5.2543H19.8483V6.06967H17.663V5.2543ZM0.476562 14.6666H2.66192V15.4851H0.476562V14.6666ZM0.476562 12.7835H2.66192V13.5925H0.476562V12.7835ZM0.476562 10.902H2.66192V11.7173H0.476562V10.902ZM0.476562 9.01889H2.66192V9.83426H0.476562V9.01889ZM0.476562 7.13738H2.66192V7.95276H0.476562V7.13738ZM0.476562 5.2543H2.66192V6.06967H0.476562V5.2543ZM15.2774 4.5793H5.02859C4.84615 4.57923 4.67105 4.65121 4.54138 4.77959C4.47748 4.84356 4.42687 4.91957 4.3925 5.00321C4.35813 5.08686 4.34068 5.17649 4.34114 5.26692V15.4851C4.34155 15.6679 4.41423 15.8431 4.54331 15.9725C4.6724 16.1019 4.84741 16.175 5.03017 16.1759H15.2789C15.3706 16.176 15.4613 16.1578 15.5458 16.1224C15.6303 16.0869 15.7068 16.0348 15.7709 15.9693C15.8973 15.8399 15.9676 15.6659 15.9664 15.4851V5.2685C15.9656 5.08597 15.8927 4.91115 15.7637 4.78208C15.6346 4.65301 15.4599 4.58013 15.2774 4.5793Z" fill="#277EFF"/>
</svg>
