<svg width="20" height="20" viewBox="0 0 20 20" fill="none" xmlns="http://www.w3.org/2000/svg">
<path d="M0.504992 15.0385L14.8432 0.700305C14.8928 0.650354 14.9582 0.625757 15.0241 0.625757L15.0248 0.625C15.0903 0.625 15.1565 0.650354 15.2065 0.700305L16.453 1.94643C16.4935 1.98706 16.5163 2.04211 16.5163 2.0995C16.5163 2.15689 16.4935 2.21193 16.453 2.25257L16.2513 2.45389L16.4446 2.64763L16.6463 2.44594C16.6869 2.40542 16.7419 2.38265 16.7992 2.38265C16.8565 2.38265 16.9115 2.40542 16.9521 2.44594L17.5133 3.00675C17.5977 3.09114 17.5977 3.22813 17.5133 3.31289L17.3116 3.51421L17.505 3.70758L17.7067 3.50626C17.7472 3.46574 17.8022 3.44298 17.8595 3.44298C17.9169 3.44298 17.9719 3.46574 18.0124 3.50626L19.7297 5.22351C19.7535 5.24739 19.7723 5.27572 19.7852 5.30688C19.7981 5.33805 19.8046 5.37144 19.8046 5.40515C19.8046 5.47062 19.7796 5.53684 19.7297 5.58679L13.2118 12.1046C13.1713 12.1452 13.1163 12.1679 13.059 12.1679C13.0016 12.1679 12.9466 12.1452 12.9061 12.1046L12.4921 11.6906L12.1863 11.9964L12.6003 12.41C12.6847 12.4948 12.6847 12.6318 12.6003 12.7162L5.39148 19.925C5.36761 19.9488 5.33928 19.9677 5.30811 19.9805C5.27695 19.9934 5.24355 20 5.20984 19.9999C5.14438 19.9999 5.07815 19.9753 5.02782 19.925L3.23148 18.1286C3.14709 18.0439 3.14709 17.9069 3.23148 17.8225L3.47215 17.5822L3.1925 17.3029L2.95221 17.5432C2.91165 17.5838 2.85666 17.6065 2.79933 17.6065C2.742 17.6065 2.68701 17.5838 2.64645 17.5432L2.09775 16.9945C2.05722 16.954 2.03446 16.899 2.03446 16.8416C2.03446 16.7843 2.05722 16.7293 2.09775 16.6888L2.33804 16.4481L2.05877 16.1688L1.81848 16.4095C1.77784 16.45 1.72279 16.4728 1.66541 16.4728C1.60802 16.4728 1.55297 16.45 1.51234 16.4095L0.504614 15.4018C0.456603 15.3535 0.429662 15.2882 0.429688 15.2201C0.429688 15.2076 0.430823 15.1952 0.432715 15.1834C0.440283 15.1301 0.464502 15.0786 0.504992 15.0385ZM9.38718 7.89702L10.4744 6.80946C10.5213 6.76258 10.5834 6.734 10.6496 6.72885C10.7234 6.72318 10.7968 6.74702 10.8513 6.80151L12.8349 8.78517C12.8894 8.83966 12.9129 8.91307 12.9072 8.98648L12.9061 8.99784C12.8986 9.05991 12.8707 9.11771 12.8266 9.16207L11.7394 10.2493C11.6906 10.2981 11.6266 10.3261 11.5634 10.3306L11.5389 10.331C11.4741 10.3299 11.4109 10.306 11.3625 10.2576L9.37885 8.27355C9.32436 8.21943 9.30052 8.14602 9.3062 8.07223C9.31112 8.00941 9.33798 7.94584 9.38718 7.89702ZM10.667 7.15268L9.73002 8.08926L11.5468 9.90641L12.4838 8.96946L10.667 7.15268ZM12.8913 10.2629L13.4487 10.8207L13.2164 11.053L12.659 10.4952L12.8913 10.2629ZM13.4177 9.73651L13.9755 10.2943L13.7431 10.5266L13.1853 9.96885L13.4177 9.73651ZM13.9441 9.21013L14.5019 9.76754L14.2695 9.99988L13.7117 9.44248L13.9441 9.21013ZM14.4708 8.68337L15.0282 9.24116L14.7963 9.47351L14.2385 8.91572L14.4708 8.68337ZM14.9972 8.157L15.555 8.71478L15.3226 8.94713L14.7649 8.38934L14.9972 8.157ZM15.5236 7.63062L16.0814 8.1884L15.849 8.42037L15.2912 7.86297L15.5236 7.63062ZM16.0503 7.10386L16.6077 7.66165L16.3754 7.894L15.818 7.33621L16.0503 7.10386ZM16.5767 6.57749L17.1345 7.13527L16.9021 7.36762L16.3444 6.80983L16.5767 6.57749ZM17.1031 6.05111L17.6609 6.6089L17.4285 6.84086L16.8707 6.28346L17.1031 6.05111ZM17.6298 5.52435L18.1872 6.08214L17.9549 6.31449L17.3975 5.7567L17.6298 5.52435ZM5.66508 17.4891L6.22286 18.0469L5.99051 18.2793L5.43273 17.7215L5.66508 17.4891ZM6.19145 16.9627L6.74924 17.5201L6.51689 17.7525L5.95948 17.1947L6.19145 16.9627ZM6.71821 16.436L7.27599 16.9938L7.04365 17.2261L6.48586 16.6683L6.71821 16.436ZM7.24459 15.9096L7.80237 16.4674L7.57002 16.6997L7.01224 16.142L7.24459 15.9096ZM7.77096 15.3832L8.32875 15.9406L8.0964 16.173L7.53861 15.6152L7.77096 15.3832ZM8.29772 14.8565L8.8555 15.4143L8.62316 15.6466L8.06537 15.0888L8.29772 14.8565ZM8.82409 14.3301L9.38188 14.8879L9.14953 15.1202L8.59175 14.5624L8.82409 14.3301ZM9.35047 13.8037L9.90826 14.3611L9.67591 14.5935L9.11812 14.0357L9.35047 13.8037ZM9.87723 13.277L10.435 13.8348L10.2027 14.0671L9.64488 13.5093L9.87723 13.277ZM10.4036 12.7506L10.9614 13.3084L10.729 13.5407L10.1713 12.9829L10.4036 12.7506ZM10.93 12.2242L11.4878 12.7816L11.2554 13.014L10.6976 12.4566L10.93 12.2242ZM13.1755 4.1087L14.2627 3.02113C14.3096 2.97426 14.3718 2.94567 14.4379 2.94053C14.5117 2.93485 14.5851 2.95869 14.6396 3.01318L16.6233 4.99684C16.6777 5.05133 16.7012 5.12475 16.6955 5.19816L16.6944 5.20951C16.687 5.27158 16.659 5.32939 16.6149 5.37374L15.5277 6.46094C15.4806 6.50803 15.4182 6.53686 15.3518 6.54229L15.3272 6.54267C15.2625 6.54154 15.1993 6.5177 15.1508 6.46926L13.1672 4.48522C13.1127 4.43073 13.0888 4.3577 13.0945 4.28391C13.0994 4.22109 13.1267 4.15752 13.1755 4.1087ZM14.4553 3.36436L13.5183 4.30094L15.3351 6.11809L16.2721 5.18113L14.4553 3.36436ZM11.2812 6.00267L12.3683 4.91548C12.4155 4.86863 12.4777 4.83995 12.5439 4.8345C12.6177 4.82883 12.6911 4.85267 12.7452 4.90716L14.7289 6.89082C14.7834 6.94531 14.8072 7.01872 14.8016 7.09213L14.8004 7.10386C14.7932 7.16328 14.7664 7.22231 14.721 7.26772L13.6338 8.35491C13.5866 8.40224 13.524 8.4311 13.4574 8.43627L13.4332 8.43665C13.3681 8.43589 13.3053 8.41167 13.2569 8.36323L11.2728 6.37958C11.2183 6.32508 11.1945 6.25167 11.2002 6.17826C11.2051 6.11506 11.2323 6.05149 11.2812 6.00267ZM12.561 5.25833L11.624 6.19529L13.4412 8.01206L14.3781 7.0751L12.561 5.25833ZM2.68429 14.5995L7.88865 9.39517C7.93747 9.34674 8.00104 9.31911 8.06386 9.31457L8.06461 9.31419C8.13765 9.30852 8.21068 9.33274 8.26555 9.38723L10.2492 11.3709C10.3033 11.425 10.3268 11.498 10.3215 11.5711V11.5722C10.3162 11.6384 10.2877 11.7006 10.2409 11.7478L5.03653 16.9521C4.98847 17.0002 4.92452 17.0278 4.86094 17.0327C4.78753 17.0384 4.71449 17.015 4.65962 16.9605L2.67597 14.9764C2.62147 14.9219 2.59763 14.8489 2.60331 14.7751C2.60823 14.7123 2.6351 14.6487 2.68429 14.5995ZM8.08088 9.7384L3.02714 14.7921L4.84391 16.6093L9.89804 11.5552L8.08088 9.7384ZM15.0248 1.13019L0.934873 15.2201L1.66559 15.9505L1.90589 15.7102C1.94645 15.6697 2.00144 15.6469 2.05877 15.6469C2.1161 15.6469 2.17109 15.6697 2.21165 15.7102L2.79706 16.2952C2.88145 16.3796 2.88145 16.5166 2.79706 16.6014L2.55639 16.8416L2.79933 17.0842L3.03962 16.8439C3.08026 16.8034 3.1353 16.7806 3.19269 16.7806C3.25008 16.7806 3.30513 16.8034 3.34576 16.8439L3.93079 17.429C4.01518 17.5137 4.01518 17.6507 3.93079 17.7351L3.6905 17.9754L5.20984 19.4947L12.1413 12.5633L11.7277 12.1493C11.6433 12.0649 11.6433 11.9279 11.7277 11.8431L12.3392 11.2316C12.3798 11.1911 12.4347 11.1683 12.4921 11.1683C12.5494 11.1683 12.6044 11.1911 12.645 11.2316L13.059 11.6456L19.2994 5.40515L17.8595 3.9649L17.6578 4.1666C17.6173 4.20712 17.5623 4.22988 17.505 4.22988C17.4476 4.22988 17.3926 4.20712 17.3521 4.1666L16.8526 3.66747C16.7682 3.5827 16.7682 3.44571 16.8526 3.36133L17.0543 3.15963L16.7992 2.90458L16.5975 3.10628C16.557 3.1468 16.502 3.16956 16.4446 3.16956C16.3873 3.16956 16.3323 3.1468 16.2918 3.10628L15.7923 2.60714C15.7517 2.56651 15.729 2.51146 15.729 2.45407C15.729 2.39669 15.7517 2.34164 15.7923 2.30101L15.9939 2.09931L15.0248 1.13019Z" fill="#277EFF"/>
</svg>
